
<svg version="1.0" xmlns="http://www.w3.org/2000/svg"
 width="812.000000pt" height="1056.000000pt" viewBox="0 0 812.000000 1056.000000"
 preserveAspectRatio="xMidYMid meet">

<g transform="translate(0.000000,1056.000000) scale(0.100000,-0.100000)"
fill="#ffff" stroke="none">
<path d="M1736 10444 c-310 -67 -540 -368 -576 -757 -33 -343 76 -668 279
-834 227 -186 625 -204 829 -36 89 73 153 205 173 361 13 99 2 144 -37 150
-30 4 -43 -18 -55 -90 -32 -204 -106 -326 -237 -390 -63 -31 -72 -33 -177 -33
-98 0 -116 3 -167 27 -155 73 -262 249 -303 499 -30 190 -15 526 31 679 41
137 125 249 222 297 50 24 69 28 147 28 77 0 98 -4 147 -27 124 -58 210 -185
252 -370 4 -16 10 -28 14 -28 4 0 20 30 36 68 16 37 66 140 112 229 45 88 80
163 77 166 -2 3 -23 -3 -46 -14 -65 -29 -123 -24 -260 22 -202 68 -323 82
-461 53z"/>
<path d="M3835 10443 c-169 -22 -320 -124 -388 -262 -31 -64 -32 -69 -32 -201
0 -128 2 -138 29 -197 63 -136 185 -211 439 -268 286 -65 387 -104 464 -181
82 -82 110 -190 78 -300 -13 -47 -27 -69 -69 -110 -69 -67 -140 -95 -261 -101
-155 -9 -291 27 -392 104 -76 58 -153 193 -165 292 -6 45 -25 32 -48 -31 -33
-90 -91 -210 -149 -307 -45 -75 -58 -101 -48 -101 1 0 30 10 62 21 78 28 158
22 364 -25 419 -96 625 -64 803 122 93 97 128 188 128 333 0 143 -38 237 -133
326 -96 91 -173 125 -412 184 -215 53 -273 73 -342 118 -71 46 -109 99 -124
173 -23 114 40 227 160 285 50 25 67 28 156 28 88 0 107 -3 159 -28 122 -57
177 -122 227 -271 l27 -81 35 75 c20 41 50 109 67 151 17 43 49 107 71 144 23
37 38 69 36 72 -3 2 -20 -3 -37 -12 -59 -30 -124 -30 -265 3 -199 47 -327 60
-440 45z"/>
<path d="M5975 10443 c-169 -22 -320 -124 -388 -262 -31 -64 -32 -69 -32 -201
0 -128 2 -138 29 -197 63 -136 185 -211 439 -268 286 -65 387 -104 464 -181
82 -82 110 -190 78 -300 -13 -47 -27 -69 -69 -110 -69 -67 -140 -95 -261 -101
-155 -9 -291 27 -392 104 -76 58 -153 193 -165 292 -6 45 -25 32 -48 -31 -33
-90 -91 -210 -149 -307 -45 -75 -58 -101 -48 -101 1 0 30 10 62 21 78 28 158
22 364 -25 419 -96 625 -64 803 122 93 97 128 188 128 333 0 143 -38 237 -133
326 -96 91 -173 125 -412 184 -215 53 -273 73 -342 118 -71 46 -109 99 -124
173 -23 114 40 227 160 285 50 25 67 28 156 28 88 0 107 -3 159 -28 122 -57
177 -122 227 -271 l27 -81 35 75 c20 41 50 109 67 151 17 43 49 107 71 144 23
37 38 69 36 72 -3 2 -20 -3 -37 -12 -59 -30 -124 -30 -265 3 -199 47 -327 60
-440 45z"/>
<path d="M4528 10154 c-84 -169 -100 -207 -88 -214 12 -8 35 31 117 198 56
114 103 210 103 215 0 4 -7 7 -15 7 -10 0 -52 -73 -117 -206z"/>
<path d="M6668 10154 c-84 -169 -100 -207 -88 -214 12 -8 35 31 117 198 56
114 103 210 103 215 0 4 -7 7 -15 7 -10 0 -52 -73 -117 -206z"/>
<path d="M2547 10277 c-76 -139 -196 -375 -202 -396 -5 -15 -3 -26 6 -31 9 -6
36 40 100 168 48 97 103 205 123 239 29 50 32 62 20 67 -9 3 -16 6 -17 6 -1 0
-15 -24 -30 -53z"/>
<path d="M1815 10266 c-129 -41 -199 -132 -246 -318 -26 -105 -38 -426 -20
-561 29 -213 93 -369 189 -458 32 -30 75 -60 95 -66 45 -14 49 -1 6 17 -50 21
-124 105 -163 184 -75 151 -114 400 -101 635 20 350 120 532 302 548 72 6 122
-7 196 -51 69 -42 75 -30 10 19 -82 60 -180 79 -268 51z"/>
<path d="M3840 10243 c-95 -50 -137 -143 -116 -256 8 -44 76 -122 130 -148
l41 -21 -57 58 c-88 90 -107 157 -69 240 73 162 317 165 484 6 51 -50 49 -18
-3 41 -23 26 -65 58 -98 74 -48 23 -72 28 -157 31 -94 4 -103 2 -155 -25z"/>
<path d="M5980 10243 c-95 -50 -137 -143 -116 -256 8 -44 76 -122 130 -148
l41 -21 -57 58 c-88 90 -107 157 -69 240 73 162 317 165 484 6 51 -50 49 -18
-3 41 -23 26 -65 58 -98 74 -48 23 -72 28 -157 31 -94 4 -103 2 -155 -25z"/>
<path d="M3500 9604 c0 -4 9 -22 21 -40 41 -66 136 -105 449 -184 239 -59 294
-80 359 -131 55 -44 63 -43 29 6 -46 68 -96 89 -431 175 -252 66 -329 95 -378
146 -31 32 -49 42 -49 28z"/>
<path d="M5640 9604 c0 -4 9 -22 21 -40 41 -66 136 -105 449 -184 239 -59 294
-80 359 -131 55 -44 63 -43 29 6 -46 68 -96 89 -431 175 -252 66 -329 95 -378
146 -31 32 -49 42 -49 28z"/>
<path d="M4618 9527 c105 -123 139 -319 82 -486 -56 -167 -208 -311 -391 -372
-66 -21 -91 -24 -224 -23 -146 1 -154 2 -330 49 -148 39 -196 48 -270 49 -99
1 -162 -18 -146 -43 7 -11 17 -11 61 4 75 25 173 15 350 -35 251 -70 430 -76
597 -20 170 58 325 205 386 367 18 48 22 79 22 183 0 106 -4 133 -23 180 -25
62 -85 145 -122 169 -22 14 -21 11 8 -22z"/>
<path d="M6758 9527 c105 -123 139 -319 82 -486 -56 -167 -208 -311 -391 -372
-66 -21 -91 -24 -224 -23 -146 1 -154 2 -330 49 -148 39 -196 48 -270 49 -99
1 -162 -18 -146 -43 7 -11 17 -11 61 4 75 25 173 15 350 -35 251 -70 430 -76
597 -20 170 58 325 205 386 367 18 48 22 79 22 183 0 106 -4 133 -23 180 -25
62 -85 145 -122 169 -22 14 -21 11 8 -22z"/>
<path d="M2516 9195 c-9 -100 -39 -215 -73 -278 -40 -75 -155 -187 -231 -225
-98 -48 -195 -66 -326 -59 -128 7 -194 23 -288 70 -37 18 -63 27 -57 21 17
-21 151 -82 219 -101 80 -21 270 -24 350 -4 246 60 396 248 441 551 10 69 9
84 -2 91 -24 15 -26 11 -33 -66z"/>
<path d="M3635 9153 c23 -127 138 -256 255 -287 20 -6 18 -2 -10 16 -109 70
-172 148 -204 251 -11 36 -23 57 -33 57 -12 0 -14 -8 -8 -37z"/>
<path d="M5775 9153 c23 -127 138 -256 255 -287 20 -6 18 -2 -10 16 -109 70
-172 148 -204 251 -11 36 -23 57 -33 57 -12 0 -14 -8 -8 -37z"/>
<path d="M726 8044 c-10 -27 -7 -4929 4 -5050 19 -217 35 -297 80 -409 14 -37
58 -180 69 -225 6 -25 19 -63 31 -85 11 -21 20 -44 20 -51 0 -6 8 -29 17 -50
9 -22 17 -43 17 -47 1 -4 6 -11 12 -15 6 -4 11 -14 12 -22 0 -8 3 -24 6 -35 2
-11 5 -24 5 -28 1 -5 5 -5 11 -2 6 4 10 -6 10 -22 0 -18 8 -33 21 -41 12 -8
18 -19 15 -28 -3 -8 -1 -14 4 -14 4 0 14 -16 20 -35 6 -19 17 -35 23 -35 8 0
8 -3 -1 -8 -9 -7 -6 -16 14 -37 14 -16 27 -39 28 -52 0 -13 4 -23 8 -23 5 0 7
-4 5 -9 -1 -5 11 -23 27 -41 16 -19 30 -44 32 -58 1 -13 16 -39 33 -56 17 -18
31 -37 31 -43 0 -6 11 -20 25 -31 13 -11 22 -22 19 -25 -3 -3 4 -8 15 -12 13
-4 18 -11 14 -22 -4 -9 1 -19 10 -25 10 -5 17 -16 17 -25 0 -9 6 -13 15 -9 11
4 15 -1 15 -19 0 -18 5 -25 19 -25 10 0 24 -7 31 -15 7 -8 18 -15 25 -15 19 0
24 -23 8 -38 -17 -17 5 -46 24 -31 13 11 28 -5 19 -20 -8 -12 4 -41 16 -41 5
0 16 -7 25 -16 9 -8 21 -13 28 -10 7 2 15 -4 18 -15 4 -15 2 -19 -9 -15 -8 3
-14 1 -14 -4 0 -6 7 -10 15 -10 8 0 14 -3 13 -8 -6 -15 41 -55 57 -48 9 3 13
2 10 -4 -9 -15 32 -62 65 -76 22 -10 30 -10 34 -1 3 7 5 6 4 -3 -4 -29 13 -55
52 -82 22 -15 40 -34 40 -41 0 -16 57 -50 70 -42 5 3 12 -6 16 -20 3 -14 11
-25 18 -24 23 3 37 -1 32 -10 -3 -4 4 -19 17 -33 16 -17 31 -24 52 -22 33 4
55 -11 55 -35 0 -19 86 -88 103 -83 6 2 16 -3 22 -10 10 -14 78 -58 88 -58 4
0 4 8 1 18 -5 16 -5 16 6 0 6 -10 18 -18 27 -18 9 0 13 -6 9 -15 -8 -23 22
-46 51 -39 19 5 24 4 18 -6 -5 -9 -2 -10 14 -5 18 5 24 2 28 -14 3 -11 9 -19
13 -16 5 3 14 -1 22 -8 7 -8 19 -12 26 -9 6 2 12 0 12 -5 0 -10 87 -48 104
-44 4 1 15 -6 23 -16 8 -10 12 -12 8 -6 -10 21 9 14 23 -8 15 -23 78 -53 92
-44 6 4 10 1 10 -4 0 -6 9 -11 20 -11 11 0 23 -7 26 -15 7 -18 32 -20 31 -2
-1 32 4 48 13 42 8 -5 7 -11 0 -20 -15 -18 -5 -35 19 -35 10 0 24 -7 31 -15 7
-8 16 -13 20 -10 5 3 12 0 15 -6 4 -5 13 -8 20 -5 8 3 16 0 18 -7 3 -9 8 -8
21 2 13 11 20 11 24 3 4 -6 20 -15 35 -21 22 -9 29 -8 33 4 4 8 10 12 16 9 5
-3 7 -12 4 -19 -6 -17 13 -24 50 -20 15 1 34 -3 41 -10 7 -7 32 -16 55 -20 24
-4 47 -10 52 -13 6 -3 21 -7 35 -9 15 -1 31 -3 36 -4 6 -1 19 2 29 7 14 5 17
4 12 -4 -8 -13 -1 -14 69 -16 22 -1 45 -4 50 -7 40 -25 408 -40 640 -26 122 7
270 22 270 28 0 2 24 5 111 13 33 3 82 13 109 21 27 8 52 12 56 9 4 -2 10 0
14 6 3 5 13 10 21 10 9 0 22 7 31 15 8 9 29 15 46 14 36 -2 126 18 142 31 5 4
15 9 20 9 36 3 74 14 70 21 -2 4 7 17 22 30 18 15 28 19 33 10 10 -16 63 -2
56 16 -3 8 -1 14 3 14 5 0 11 -5 13 -12 3 -7 9 -8 19 -3 8 5 23 11 33 12 10 2
30 15 43 29 20 21 23 22 23 7 1 -12 6 -8 15 12 11 24 14 26 15 10 1 -11 4 -14
7 -7 2 6 8 10 13 7 5 -3 14 1 22 8 7 8 27 18 43 24 25 8 29 14 27 36 -4 33 1
34 28 5 11 -12 20 -17 20 -11 0 6 27 21 59 33 39 14 61 28 64 41 3 11 11 18
19 17 8 -2 12 4 10 15 -3 15 1 17 17 12 14 -4 26 0 37 14 10 11 21 18 26 15 4
-3 8 1 8 8 0 9 3 9 10 -2 8 -12 10 -10 10 9 0 20 4 23 26 18 30 -5 56 16 48
41 -4 10 -3 13 3 6 5 -8 16 -8 31 -3 18 7 22 14 17 29 -3 11 -2 20 3 20 6 0
12 -5 14 -11 2 -5 11 -7 20 -4 10 4 14 13 11 22 -4 10 -2 14 4 10 6 -4 14 -1
16 5 4 10 6 9 6 -1 1 -11 5 -10 20 3 12 11 17 25 14 37 -5 16 -1 20 13 17 13
-2 18 2 16 14 -1 9 7 22 18 28 15 8 20 8 20 -2 0 -9 3 -9 10 2 6 10 10 11 10
3 0 -14 14 -4 91 68 27 25 49 52 49 58 0 7 6 11 13 9 12 -3 147 123 147 137 0
11 28 35 42 35 8 0 9 3 3 8 -14 10 -18 42 -5 42 6 0 8 -4 5 -10 -3 -5 -2 -10
3 -10 5 0 14 10 20 23 6 12 11 16 11 9 1 -7 5 -11 11 -7 5 3 7 12 3 20 -3 9 1
15 11 15 14 0 20 11 18 31 -1 4 10 10 23 13 26 7 32 20 15 31 -14 9 -12 25 3
25 16 0 57 42 57 58 0 7 -5 12 -11 12 -5 0 -8 4 -4 10 3 5 13 6 23 3 16 -6 16
-6 0 11 -27 27 -27 27 41 14 3 -1 14 2 23 6 14 7 16 12 7 29 -9 17 -9 19 4 14
9 -3 21 0 27 8 8 10 8 14 -2 18 -9 4 -9 6 2 6 21 2 59 64 66 108 7 45 11 53
27 53 13 0 70 64 67 76 -1 4 4 11 12 15 10 7 10 9 0 9 -15 0 3 35 32 62 11 10
16 21 13 24 -4 4 3 18 13 32 11 13 20 33 20 43 0 11 7 19 16 19 10 0 14 6 11
15 -4 8 -1 17 4 21 11 7 43 71 44 89 0 6 4 16 9 24 5 8 4 16 -3 21 -9 5 -7 10
4 20 20 17 55 83 55 105 0 8 4 15 9 15 5 0 15 26 21 58 6 31 19 72 28 90 13
27 14 37 4 53 -11 16 -9 19 8 19 19 0 24 10 21 38 -1 8 3 20 10 28 6 8 9 27 6
44 -5 22 -2 32 11 39 10 6 12 11 5 11 -15 0 -18 27 -4 32 5 1 12 21 15 43 3
22 10 58 16 80 18 63 27 127 24 167 -1 21 3 38 8 38 6 0 8 17 4 45 -5 32 -4
45 5 45 8 0 10 13 6 39 -3 22 -2 42 1 46 3 3 7 27 7 53 1 26 7 65 13 87 13 45
15 2903 3 3980 -7 595 -7 612 -29 669 -12 33 -32 74 -44 93 l-23 33 -257 0
c-212 0 -258 -2 -265 -14 -4 -8 -11 -15 -15 -15 -11 -1 -50 -41 -40 -41 4 0
-4 -9 -18 -20 -14 -11 -19 -20 -12 -20 6 0 12 -4 12 -10 0 -5 -6 -7 -14 -4 -9
3 -20 -3 -28 -15 -7 -12 -23 -21 -35 -21 -13 0 -23 -6 -23 -14 0 -17 -37 -28
-44 -12 -2 6 -5 4 -5 -6 -1 -9 5 -19 11 -21 10 -4 10 -6 1 -6 -6 -1 -15 3 -18
9 -4 6 -16 4 -31 -6 -13 -9 -24 -12 -25 -8 0 5 -4 0 -8 -11 -5 -11 -12 -20
-17 -21 -28 -2 -70 -19 -80 -32 -5 -8 -25 -15 -43 -17 -18 -1 -37 -8 -42 -16
-7 -12 -9 -12 -9 0 0 11 -4 10 -20 -4 -10 -9 -26 -15 -33 -12 -8 3 -24 -1 -35
-8 -10 -8 -22 -12 -25 -8 -4 3 -12 1 -19 -5 -26 -20 -142 -25 -470 -20 -27 0
-48 4 -48 9 0 5 -19 13 -42 19 -24 6 -52 15 -64 21 -11 6 -31 12 -45 13 -13 2
-37 9 -54 16 -16 8 -32 14 -35 15 -3 0 -14 6 -25 12 -11 5 -38 16 -60 23 -22
7 -58 28 -80 45 -22 18 -57 42 -78 53 -41 22 -82 19 -73 -5 4 -10 1 -13 -13
-8 -12 4 -24 -1 -33 -13 -7 -10 -29 -24 -48 -32 -19 -8 -48 -23 -65 -34 -16
-12 -36 -22 -44 -24 -8 -2 -32 -12 -54 -23 -23 -10 -51 -19 -64 -19 -13 0 -23
-4 -23 -10 0 -5 -6 -10 -12 -10 -7 0 -26 -7 -43 -16 -16 -8 -31 -11 -33 -6 -1
5 -21 3 -45 -5 -54 -19 -100 -23 -267 -23 -210 0 -220 0 -220 11 0 6 -9 8 -19
4 -11 -3 -22 -1 -25 4 -10 16 -35 1 -29 -16 4 -11 2 -14 -6 -9 -6 4 -9 16 -6
27 5 15 1 19 -22 21 -15 0 -36 1 -45 0 -10 -1 -18 5 -18 13 0 9 -10 15 -25 15
-14 0 -25 4 -25 9 0 6 -9 8 -19 6 -11 -2 -22 3 -25 11 -3 7 -12 11 -21 8 -8
-3 -15 -2 -15 4 0 5 -11 7 -24 5 -18 -4 -25 0 -29 17 -3 12 -10 19 -16 16 -5
-4 -12 -2 -15 3 -4 5 -26 19 -51 31 -25 12 -43 26 -39 31 3 5 -4 9 -15 9 -12
0 -21 7 -21 15 0 8 -5 15 -12 15 -25 0 -78 -25 -78 -36 0 -7 -16 -18 -35 -25
-19 -7 -35 -16 -35 -20 0 -3 -11 -6 -25 -6 -14 0 -33 -7 -43 -16 -17 -15 -109
-57 -133 -60 -8 -2 -18 -5 -24 -9 -5 -3 -29 -9 -52 -13 -24 -4 -45 -10 -48
-15 -3 -4 -25 -11 -50 -14 -24 -4 -47 -11 -50 -17 -4 -5 -28 -9 -55 -9 -27 0
-51 -4 -54 -8 -2 -4 -80 -9 -173 -11 -92 -1 -171 -5 -175 -7 -3 -2 -28 0 -55
6 -26 6 -78 15 -115 20 -37 4 -91 20 -120 34 -28 14 -64 26 -79 26 -14 0 -67
14 -117 30 -50 17 -98 30 -106 30 -7 0 -16 7 -20 15 -3 8 -14 15 -25 15 -11 0
-23 5 -26 10 -4 6 -15 8 -26 5 -11 -4 -19 -2 -19 4 0 6 -7 11 -15 11 -9 0 -18
7 -21 15 -4 8 -10 15 -15 15 -14 0 -58 32 -158 112 -14 12 -21 14 -21 5 -1 -6
-7 0 -16 15 l-14 27 -444 1 c-398 0 -444 -1 -450 -16z m4484 -185 c0 -6 -4 -7
-10 -4 -5 3 -10 11 -10 16 0 6 5 7 10 4 6 -3 10 -11 10 -16z m130 -79 c0 -5
-5 -10 -11 -10 -5 0 -7 5 -4 10 3 6 8 10 11 10 2 0 4 -4 4 -10z m30 -6 c0 -8
-4 -12 -10 -9 -5 3 -10 10 -10 16 0 5 5 9 10 9 6 0 10 -7 10 -16z m-475 -14
c-3 -5 -12 -10 -18 -10 -7 0 -6 4 3 10 19 12 23 12 15 0z m659 -65 c-4 -8 -8
-15 -10 -15 -2 0 -4 7 -4 15 0 8 4 15 10 15 5 0 7 -7 4 -15z m588 -653 c13
-10 17 -10 21 0 3 7 6 3 6 -10 1 -13 5 -20 11 -17 6 3 10 -3 10 -15 0 -12 5
-18 10 -15 6 3 10 -1 10 -9 0 -9 4 -16 8 -16 5 0 15 -18 22 -40 7 -22 16 -40
20 -40 4 0 5 -15 3 -32 -3 -19 -1 -28 4 -21 4 6 6 -34 5 -89 -3 -71 -1 -98 7
-94 8 5 11 -516 11 -1893 0 -1341 -3 -1901 -11 -1901 -7 0 -9 -53 -7 -165 2
-91 -1 -165 -6 -165 -4 0 -6 -16 -4 -35 2 -19 1 -35 -2 -35 -6 0 -12 -17 -37
-100 -4 -14 -6 -29 -4 -34 1 -5 -4 -4 -12 2 -19 16 -44 6 -50 -19 -3 -10 -13
-19 -24 -20 -36 -1 -55 -8 -66 -23 -7 -8 -27 -17 -46 -20 -19 -3 -38 -11 -43
-20 -4 -8 -26 -17 -48 -21 -35 -6 -40 -10 -40 -33 -1 -26 -1 -26 -15 -8 -8 11
-15 14 -15 8 0 -7 -13 -12 -30 -12 -16 0 -39 -9 -49 -19 -11 -11 -21 -17 -23
-15 -7 6 -100 -43 -109 -57 -8 -14 -28 -20 -71 -21 -17 -1 -24 -6 -21 -15 3
-7 0 -13 -6 -13 -6 0 -11 -7 -11 -15 0 -8 -7 -15 -16 -15 -14 0 -14 3 -4 15
16 19 2 19 -44 0 -20 -8 -36 -21 -36 -28 0 -9 -3 -8 -9 2 -6 9 -11 10 -15 2
-4 -6 -16 -11 -27 -11 -10 0 -19 -6 -19 -14 0 -8 -8 -14 -18 -13 -10 0 -38 -8
-62 -20 -25 -11 -53 -23 -62 -26 -10 -4 -18 -13 -18 -20 0 -10 -17 -17 -50
-21 -35 -5 -50 -11 -50 -22 0 -8 -4 -13 -9 -10 -17 11 -40 -5 -33 -22 5 -14 3
-15 -10 -4 -13 10 -17 10 -22 -3 -3 -8 -9 -14 -13 -13 -32 9 -169 -44 -158
-61 2 -5 -10 -11 -28 -14 -59 -10 -67 -13 -83 -35 -8 -12 -19 -20 -24 -17 -17
10 -50 -15 -50 -37 0 -20 -1 -21 -13 -4 -10 14 -18 15 -40 7 -15 -6 -27 -14
-27 -19 0 -5 -15 -9 -32 -10 -18 0 -34 -5 -36 -11 -2 -5 -10 -7 -18 -4 -8 3
-29 -10 -49 -30 -19 -19 -35 -30 -35 -23 0 8 -2 8 -8 0 -4 -6 -15 -10 -24 -8
-10 1 -18 -2 -18 -7 0 -5 -13 -9 -29 -9 -22 0 -32 -7 -44 -31 -9 -19 -17 -27
-21 -20 -4 6 -12 8 -18 5 -6 -4 -24 -8 -40 -10 -31 -4 -78 -31 -78 -46 0 -6
-26 -7 -66 -4 -72 6 -144 25 -144 36 0 4 -11 10 -25 12 -16 4 -25 0 -28 -11
-3 -11 -5 -9 -6 6 -1 16 -15 29 -53 48 -29 14 -68 35 -87 46 -19 11 -42 18
-52 16 -10 -3 -20 0 -22 7 -3 8 -9 7 -23 -4 -15 -11 -16 -11 -6 0 13 16 16 31
5 28 -5 -1 -21 4 -36 10 -16 7 -37 12 -48 12 -10 0 -19 6 -19 14 0 15 -35 32
-57 28 -6 -2 -18 7 -27 20 -11 15 -27 22 -53 24 -29 1 -37 5 -35 18 2 9 -4 17
-13 17 -8 1 -19 3 -25 4 -5 1 -14 3 -18 4 -5 0 -19 10 -31 20 -13 11 -29 17
-37 14 -7 -3 -17 2 -20 12 -4 9 -13 14 -20 11 -8 -3 -14 1 -14 9 0 18 -20 20
-20 3 0 -8 -7 -5 -15 6 -14 19 -15 19 -15 1 0 -17 -7 -19 -9 -2 -2 12 -40 47
-53 47 -7 0 -31 11 -53 25 -22 13 -51 25 -63 25 -15 0 -26 7 -29 20 -3 12 -14
20 -29 21 -40 2 -43 3 -64 21 -11 10 -31 20 -44 24 -14 3 -30 12 -37 20 -6 8
-20 14 -30 14 -10 0 -21 5 -24 10 -4 6 -11 8 -16 5 -5 -4 -20 5 -33 19 -13 14
-33 26 -45 26 -11 0 -21 4 -21 9 0 11 -39 26 -57 23 -7 -2 -13 3 -13 9 0 7 -3
9 -7 6 -3 -4 -11 -3 -17 2 -10 8 -40 16 -78 20 -4 1 -5 7 -2 15 7 18 -78 59
-88 43 -4 -8 -9 -5 -14 7 -5 14 -9 15 -15 4 -7 -10 -9 -9 -9 5 0 17 -9 21 -40
18 -9 -1 -27 10 -40 24 -22 24 -29 25 -81 19 l-58 -6 -15 36 c-8 20 -29 44
-46 54 -16 9 -30 20 -30 25 0 4 -6 7 -13 7 -8 0 -24 11 -37 25 -12 13 -26 23
-29 20 -4 -2 -7 6 -7 18 0 30 -14 77 -23 77 -4 0 -8 118 -9 262 -1 144 -4 264
-7 266 -9 9 -5 239 5 291 5 29 17 59 25 67 8 9 15 22 15 30 0 8 5 14 11 14 5
0 7 5 4 11 -7 10 26 49 42 49 5 0 25 9 46 20 20 11 40 20 44 21 5 1 7 6 5 11
-2 7 4 7 15 2 10 -4 36 -8 58 -9 22 0 45 -3 50 -6 6 -3 25 -5 43 -5 17 1 32
-2 32 -6 0 -16 43 -57 53 -51 6 3 7 1 3 -5 -3 -5 -3 -12 1 -14 14 -6 53 -67
53 -83 0 -8 5 -15 11 -15 8 0 8 -4 0 -14 -9 -11 -9 -16 0 -21 9 -6 10 -73 5
-269 -7 -234 -6 -264 9 -294 10 -19 25 -36 34 -39 9 -4 24 -15 34 -25 12 -12
26 -17 38 -13 10 4 19 2 19 -3 0 -14 48 -43 75 -45 13 -1 33 -12 45 -25 12
-12 25 -20 30 -17 5 3 26 -4 47 -16 21 -12 57 -33 81 -46 23 -13 42 -19 42
-13 0 5 5 10 10 10 6 0 10 -7 10 -15 0 -8 6 -15 14 -15 7 0 19 -7 26 -15 7 -9
19 -14 27 -11 8 3 11 1 8 -4 -6 -9 9 -15 29 -11 17 4 66 -21 66 -34 0 -14 85
-55 125 -59 16 -2 37 -13 46 -25 9 -11 26 -21 37 -21 11 0 31 -9 45 -20 14
-11 40 -23 57 -27 17 -3 34 -12 37 -18 2 -7 19 -16 38 -19 18 -4 38 -13 45
-21 7 -8 21 -15 31 -15 10 0 22 -6 26 -12 11 -18 43 -34 83 -42 44 -9 100 -37
100 -51 0 -14 80 -48 108 -46 12 2 22 -3 22 -9 0 -7 7 -9 16 -6 8 3 12 2 9 -4
-7 -11 93 -62 106 -54 4 2 13 -5 19 -16 6 -11 14 -19 18 -18 11 2 46 -15 54
-26 5 -8 8 -8 8 0 0 5 18 10 39 9 28 -1 52 7 80 27 23 15 41 25 41 22 0 -3 6
-2 13 3 6 4 17 8 23 9 5 1 28 11 50 22 21 11 58 29 81 41 23 11 49 21 57 21 8
0 46 16 85 35 38 19 72 35 75 35 3 0 34 14 68 30 34 17 67 30 75 30 7 0 13 7
13 15 0 8 6 15 13 16 30 2 62 10 71 19 6 6 17 10 25 10 8 0 22 6 30 14 9 7 39
19 66 25 28 7 85 32 127 56 43 25 84 45 93 45 8 0 15 4 15 10 0 5 3 9 8 8 15
-4 82 24 77 33 -4 5 7 9 23 9 16 0 37 9 47 20 10 11 42 27 71 36 29 8 63 23
76 33 29 23 107 61 125 61 7 0 23 11 35 25 12 14 29 25 38 25 9 0 25 9 35 20
16 18 18 68 23 770 l5 750 -1264 2 c-695 1 -1276 2 -1291 1 -16 -1 -28 3 -28
9 0 5 -4 7 -9 3 -5 -3 -12 3 -16 12 -7 23 -72 55 -79 39 -2 -6 -5 5 -5 25 -1
28 -6 38 -21 42 -11 3 -20 11 -20 19 0 10 3 9 10 -2 9 -13 10 -13 10 1 0 8 -6
21 -12 27 -19 19 -17 160 3 197 9 17 21 44 25 60 7 22 17 31 39 35 17 3 47 14
67 23 35 16 133 17 1313 17 l1276 0 -3 902 -3 902 -25 7 c-14 4 -844 7 -1845
8 -1800 1 -1820 1 -1853 21 -18 11 -36 20 -41 20 -13 0 -81 62 -81 74 0 5 -9
20 -21 32 -17 18 -21 38 -24 108 -3 53 0 86 6 86 6 0 16 15 24 33 16 37 76 98
120 120 27 13 262 15 2076 13 1656 -1 2049 -3 2061 -14z m-3032 -4632 c0 -5
-2 -10 -4 -10 -3 0 -8 5 -11 10 -3 6 -1 10 4 10 6 0 11 -4 11 -10z m1050 -424
c0 -3 -4 -8 -10 -11 -5 -3 -10 -1 -10 4 0 6 5 11 10 11 6 0 10 -2 10 -4z m945
-196 c3 -5 1 -10 -4 -10 -6 0 -11 5 -11 10 0 6 2 10 4 10 3 0 8 -4 11 -10z
m-3915 -40 c0 -5 -4 -10 -10 -10 -5 0 -10 5 -10 10 0 6 5 10 10 10 6 0 10 -4
10 -10z m2110 -44 c0 -3 -4 -8 -10 -11 -5 -3 -10 -1 -10 4 0 6 5 11 10 11 6 0
10 -2 10 -4z m1415 -86 c3 -5 1 -10 -4 -10 -6 0 -11 5 -11 10 0 6 2 10 4 10 3
0 8 -4 11 -10z m-215 -82 c0 -21 -17 -41 -28 -34 -8 4 -6 13 6 26 19 23 22 24
22 8z m1746 -675 c-10 -10 -19 5 -10 18 6 11 8 11 12 0 2 -7 1 -15 -2 -18z
m-156 -81 c0 -5 -7 -9 -15 -9 -8 0 -12 4 -9 9 3 4 9 8 15 8 5 0 9 -4 9 -8z
m-210 -172 c-24 -15 -37 -11 -16 5 11 8 22 12 25 9 3 -3 -1 -9 -9 -14z m-760
-350 c0 -5 -2 -10 -4 -10 -3 0 -8 5 -11 10 -3 6 -1 10 4 10 6 0 11 -4 11 -10z
m-1323 -206 c-3 -3 -12 -4 -19 -1 -8 3 -5 6 6 6 11 1 17 -2 13 -5z"/>
</g>
</svg>
