
<svg version="1.0" xmlns="http://www.w3.org/2000/svg"
 width="812.000000pt" height="1056.000000pt" viewBox="0 0 812.000000 1056.000000"
 preserveAspectRatio="xMidYMid meet"> 

<g transform="translate(0.000000,1056.000000) scale(0.100000,-0.100000)"
fill="#ffff" stroke="none">
<path d="M993 10259 l87 -81 0 -292 0 -292 -46 -13 c-62 -19 -132 -77 -172
-144 -44 -73 -33 -89 25 -37 44 39 120 70 170 70 17 0 23 -6 23 -23 0 -19 -8
-24 -50 -34 -47 -11 -131 -60 -146 -84 -14 -24 19 -25 42 -2 29 28 100 62 132
63 l22 0 0 -284 0 -285 -84 -73 -84 -73 144 -3 c78 -1 210 -1 293 0 l150 3
-79 65 -79 65 0 320 -1 320 285 0 c282 0 285 0 285 -21 0 -17 -10 -23 -57 -34
-61 -15 -266 -17 -379 -5 l-64 7 0 -302 0 -302 85 -91 85 -92 -310 -3 c-171
-1 -310 -6 -310 -10 0 -29 30 -32 362 -32 l339 0 -111 126 -110 127 0 271 0
271 192 0 c106 0 212 3 236 8 l42 7 0 -277 0 -278 -85 -70 -84 -70 150 -3 c83
-1 215 -1 294 0 l143 3 -74 64 -74 65 0 680 0 681 87 87 88 88 -300 0 -300 -1
78 -72 77 -72 0 -302 0 -301 -97 -7 c-97 -8 -347 0 -364 11 -5 3 -9 125 -9
272 l0 266 67 68 c53 53 65 70 55 80 -10 10 -27 -2 -82 -57 l-70 -69 0 -278 0
-278 -35 0 -35 0 0 282 0 283 87 87 88 88 -305 0 -305 -1 88 -80z"/>
<path d="M2487 10233 c29 -60 69 -154 90 -210 21 -57 40 -103 43 -103 3 0 11
32 17 71 15 100 52 155 128 194 56 29 64 30 184 30 l126 0 3 -32 3 -33 -84 0
c-161 0 -248 -50 -281 -160 -20 -69 -21 -110 -1 -110 8 0 15 8 15 18 0 42 34
126 63 159 38 41 113 63 220 63 l67 0 0 -649 0 -649 -91 -76 -91 -76 294 0
293 1 -72 69 -73 70 0 704 0 704 59 7 c87 10 184 -3 244 -34 61 -31 108 -93
134 -179 9 -31 20 -61 23 -65 4 -4 17 20 29 55 21 57 76 168 146 291 l27 47
-784 0 -783 0 52 -107z"/>
<path d="M4183 10257 l87 -82 0 -565 c0 -320 -5 -595 -10 -634 -19 -126 -54
-178 -179 -262 l-66 -44 285 0 285 0 23 -35 22 -35 -316 0 c-284 0 -316 -2
-310 -16 3 -9 6 -18 6 -20 0 -2 156 -4 346 -4 l345 0 -86 106 c-144 176 -130
112 -132 604 -2 419 -2 424 16 380 10 -25 89 -255 176 -512 l157 -468 47 0 46
0 234 648 c128 356 237 654 242 662 5 9 9 -21 9 -75 l1 -90 -218 -607 -218
-608 -59 0 c-49 0 -57 -3 -52 -16 3 -9 6 -18 6 -20 0 -2 28 -4 63 -4 l63 0
204 563 205 562 3 -430 3 -430 -53 -45 c-29 -25 -68 -60 -88 -77 l-35 -32 295
0 295 0 -78 72 -77 72 0 675 0 675 87 87 88 88 -329 0 -328 0 40 -47 c22 -27
56 -64 76 -82 20 -19 36 -39 36 -44 0 -13 -321 -901 -329 -910 -4 -4 -74 190
-156 430 -82 241 -150 443 -152 449 -3 7 33 38 77 69 66 47 79 60 66 67 -12 7
-37 -6 -100 -52 l-85 -61 58 -167 c32 -92 107 -308 166 -481 l108 -313 -18
-54 c-10 -30 -21 -54 -24 -54 -3 0 -87 239 -186 531 -99 293 -181 535 -183
539 -1 4 40 46 93 94 l95 86 -337 0 -338 -1 88 -82z m224 -328 l27 -74 6 -490
c5 -485 5 -491 28 -540 13 -27 42 -69 65 -92 22 -24 36 -43 29 -43 -22 0 -86
37 -116 66 -69 69 -76 134 -76 751 0 279 2 504 5 501 3 -2 17 -38 32 -79z"/>
<path d="M6133 10256 l87 -82 0 -680 0 -680 -86 -70 -86 -69 667 -3 c368 -1
670 0 672 2 2 2 -14 28 -37 57 -47 63 -127 220 -169 334 -16 45 -31 73 -34 65
-3 -8 -13 -42 -22 -75 -40 -144 -112 -224 -240 -269 -33 -12 -93 -20 -177 -23
l-128 -6 0 688 0 687 66 68 c90 93 66 106 -27 14 l-69 -68 0 -694 c0 -629 -1
-694 -16 -688 -9 3 -24 6 -35 6 -19 0 -19 17 -19 692 l0 693 92 92 93 93 -310
0 -310 -1 88 -83z"/>
<path d="M2317 10222 l-67 -68 0 -683 0 -683 81 -92 81 -91 -312 -5 c-299 -5
-311 -6 -293 -23 18 -16 47 -17 352 -15 l333 3 -106 120 -105 120 -1 665 0
666 64 63 c37 37 62 69 59 77 -3 8 -8 14 -12 14 -4 0 -37 -30 -74 -68z"/>
<path d="M4022 10238 c-60 -87 -167 -330 -158 -355 8 -19 26 -16 33 5 41 114
113 262 168 345 13 21 14 26 1 36 -12 10 -20 4 -44 -31z"/>
<path d="M5813 10208 l-73 -52 0 -680 1 -681 84 -95 84 -95 -310 -3 c-278 -2
-310 -4 -305 -18 3 -9 6 -18 6 -20 0 -2 155 -4 345 -4 190 0 345 3 345 6 0 3
-49 61 -110 129 l-110 123 0 656 0 656 70 51 c65 47 80 68 54 75 -5 2 -42 -20
-81 -48z"/>
<path d="M3400 9474 l0 -676 85 -97 86 -96 -306 -3 c-168 -1 -305 -6 -305 -10
0 -29 30 -32 358 -32 l334 0 -106 124 -106 125 0 655 0 656 49 0 c67 0 148
-17 195 -40 22 -11 42 -18 44 -15 10 10 -58 64 -94 74 -21 6 -83 11 -136 11
l-98 0 0 -676z"/>
<path d="M7271 9054 c24 -66 117 -233 166 -302 l55 -75 -18 -39 -17 -38 -690
0 c-689 0 -690 0 -672 -20 18 -20 31 -20 696 -20 l679 0 29 58 29 57 -68 103
c-38 56 -89 145 -115 197 -40 80 -59 105 -81 105 -2 0 1 -12 7 -26z"/>
<path d="M7145 7977 c-14 -5 -23 -13 -19 -18 3 -5 2 -9 -3 -8 -32 6 -52 -4
-61 -28 -6 -16 -11 -22 -11 -15 -1 6 -5 12 -11 12 -5 0 -9 -4 -7 -8 1 -5 -9
-24 -23 -42 -14 -18 -25 -35 -25 -39 0 -3 -4 -12 -8 -18 -5 -7 -5 -13 -2 -13
5 0 -39 -52 -92 -107 -13 -13 -23 -26 -23 -28 0 -3 -2 -4 -5 -2 -2 1 -12 -8
-20 -20 -9 -13 -23 -23 -31 -23 -8 0 -18 -8 -21 -17 -4 -10 -15 -24 -25 -31
-15 -11 -16 -17 -7 -28 9 -11 8 -18 -1 -29 -10 -12 -25 -14 -62 -10 -28 3 -55
2 -62 -3 -6 -4 -27 -8 -46 -7 -19 0 -38 -4 -41 -9 -4 -5 -29 -10 -55 -12 -28
-1 -48 -7 -47 -13 2 -6 -3 -8 -10 -5 -24 9 -3275 9 -3270 0 4 -5 1 -6 -5 -2
-7 4 -350 7 -764 7 -416 0 -755 4 -758 9 -3 4 -24 5 -48 0 -24 -4 -40 -5 -37
-2 7 8 -65 34 -91 33 -12 0 -27 6 -34 14 -7 8 -16 12 -21 9 -5 -3 -9 0 -9 5 0
6 -9 11 -20 11 -11 0 -20 4 -20 10 0 5 -3 9 -7 8 -16 -5 -73 25 -73 38 0 12
-25 19 -52 15 -4 0 -10 8 -13 19 -4 12 -16 20 -28 21 -12 0 -16 3 -9 6 22 9
-15 42 -40 35 -18 -4 -20 -2 -15 20 7 28 -18 72 -36 62 -9 -5 -9 -4 0 6 7 8 8
19 3 29 -5 9 -11 24 -14 34 -3 10 -11 15 -16 12 -6 -4 -19 3 -30 14 -13 16
-20 18 -23 9 -4 -10 -6 -10 -6 0 -1 8 8 16 19 19 11 3 17 9 15 14 -3 4 -13 5
-22 2 -10 -4 -14 -2 -10 4 4 6 -1 17 -9 24 -17 14 -20 15 -62 17 -13 1 -20 7
-17 12 9 14 -68 13 -83 -2 -7 -7 -12 -9 -12 -6 0 4 -16 0 -35 -8 -19 -8 -38
-15 -42 -16 -31 -6 -42 -12 -37 -20 3 -5 -3 -12 -15 -15 -11 -3 -18 -9 -15
-14 3 -5 -3 -9 -14 -9 -10 0 -19 -6 -20 -12 -7 -48 -10 -1979 -4 -2163 4 -126
5 -234 2 -240 -7 -12 -2 -2186 5 -2295 7 -104 11 -132 20 -154 5 -11 9 -44 9
-73 1 -46 4 -53 21 -53 12 0 16 -3 9 -8 -21 -14 -21 -37 -2 -90 11 -29 18 -62
15 -73 -3 -10 -1 -22 5 -25 5 -3 8 -15 5 -25 -3 -11 -1 -19 4 -19 5 0 9 -12
10 -27 2 -52 24 -138 36 -138 20 0 28 -16 13 -25 -13 -8 -12 -10 3 -10 14 0
16 -5 11 -25 -6 -25 10 -36 19 -12 3 6 6 -11 6 -39 1 -29 8 -65 16 -80 8 -16
15 -39 15 -51 0 -12 5 -25 11 -28 6 -4 8 -13 5 -20 -3 -8 6 -25 20 -38 16 -16
20 -27 13 -29 -9 -3 -7 -12 6 -31 9 -15 14 -27 10 -27 -3 0 1 -7 9 -16 9 -8
14 -20 11 -25 -4 -5 -1 -9 4 -9 6 0 11 -9 11 -20 0 -11 9 -25 19 -32 10 -6 17
-18 14 -25 -3 -7 2 -13 11 -13 12 0 16 -10 16 -39 0 -35 2 -39 22 -35 13 2 18
2 11 -2 -13 -6 1 -47 24 -71 6 -7 21 -25 32 -39 24 -30 42 -24 23 7 -12 18
-11 20 4 11 10 -5 19 -20 20 -33 15 -110 19 -124 39 -121 20 3 20 2 1 -13 -18
-14 -18 -15 -2 -15 9 0 15 -4 11 -9 -3 -6 0 -13 7 -18 7 -4 19 -20 27 -35 8
-16 21 -28 28 -28 8 0 11 -4 8 -10 -3 -5 -1 -10 4 -10 6 0 11 -7 11 -15 0 -8
5 -15 11 -15 5 0 8 4 5 8 -2 4 0 14 5 22 7 12 8 10 6 -7 -2 -12 -6 -25 -10
-29 -9 -9 23 -55 34 -48 5 3 6 -2 3 -11 -4 -10 1 -22 15 -31 11 -8 21 -22 21
-29 0 -8 11 -17 25 -21 14 -3 23 -10 20 -14 -6 -9 30 -42 37 -35 3 4 11 -8 17
-26 9 -27 13 -30 26 -19 12 10 15 10 15 -4 0 -9 -4 -16 -9 -16 -6 0 3 -14 19
-31 15 -17 33 -28 39 -25 7 5 9 1 5 -8 -8 -22 13 -20 25 2 13 22 14 6 1 -18
-8 -14 -6 -22 5 -32 9 -7 25 -22 37 -33 20 -19 21 -19 14 -1 -5 15 -4 17 8 7
11 -9 15 -9 20 1 3 7 4 4 3 -7 -1 -11 -6 -23 -10 -26 -4 -3 11 -22 35 -43 24
-20 55 -48 69 -61 15 -13 29 -21 33 -18 3 4 6 2 6 -4 0 -6 9 -9 20 -6 27 7 50
-14 50 -47 0 -34 37 -71 50 -50 5 8 6 19 3 25 -4 5 -2 6 3 2 10 -9 11 -14 13
-52 1 -15 7 -25 16 -25 8 0 15 -5 15 -11 0 -6 9 -8 22 -4 16 6 20 4 15 -9 -7
-16 8 -30 33 -31 8 0 15 -7 15 -15 0 -9 9 -15 23 -14 12 1 22 -2 22 -6 0 -5
14 -17 31 -28 17 -10 32 -23 32 -28 1 -5 6 -8 10 -6 4 1 10 -4 13 -12 3 -8 12
-12 20 -9 8 3 14 0 14 -7 0 -7 6 -6 16 4 21 22 25 20 18 -9 -5 -21 -3 -25 14
-25 12 0 24 -4 27 -10 3 -5 26 -10 50 -10 24 0 47 -5 50 -10 4 -6 11 -8 16 -5
5 3 6 0 3 -8 -5 -15 49 -67 70 -67 7 0 23 -11 36 -25 13 -14 31 -25 41 -25 9
0 20 -7 23 -16 4 -9 9 -14 12 -12 3 3 27 -3 55 -13 27 -10 49 -14 49 -9 0 6 5
10 11 10 6 0 9 -6 6 -14 -7 -18 34 -38 138 -66 62 -17 85 -19 103 -10 20 9 25
7 29 -9 6 -23 49 -55 63 -46 5 3 18 1 28 -4 10 -5 29 -12 43 -14 13 -2 32 -7
42 -12 9 -4 28 -5 42 -3 13 3 22 2 20 -3 -3 -4 8 -10 25 -14 16 -4 32 -11 35
-16 4 -5 23 -9 44 -9 21 0 41 -3 45 -7 4 -5 25 -8 46 -9 21 0 46 -7 55 -14 10
-8 43 -15 76 -16 32 -1 63 -5 70 -9 19 -12 142 -6 152 8 6 8 7 7 4 -4 -4 -14
14 -18 122 -29 112 -11 142 -11 261 4 74 10 158 20 185 22 88 7 195 27 195 36
0 5 5 6 10 3 15 -9 190 15 220 30 14 7 43 15 65 18 22 3 51 9 65 12 14 4 41
11 60 15 116 28 134 35 125 50 -3 4 4 10 15 13 10 3 21 0 24 -7 3 -7 8 -6 15
4 6 8 11 11 11 6 0 -5 6 -3 14 3 8 6 18 11 22 10 5 -1 29 7 54 18 25 11 63 26
85 34 22 8 46 22 53 31 7 10 26 18 41 18 20 0 30 6 34 20 4 15 14 20 37 20 32
0 173 61 185 80 3 6 10 8 15 5 5 -3 13 3 19 12 6 11 11 13 11 5 0 -10 4 -10
16 2 8 9 22 16 30 16 8 0 12 5 9 10 -3 6 1 10 11 10 13 0 14 3 5 14 -9 11 -9
16 0 22 7 4 14 3 16 -3 7 -19 44 -1 54 24 6 17 14 23 25 19 10 -4 18 1 21 13
3 12 12 18 22 16 10 -2 29 7 42 19 14 12 31 20 38 18 8 -3 11 0 8 5 -9 14 35
50 56 47 11 -1 19 7 23 21 3 14 11 22 19 19 7 -3 16 3 20 15 3 11 15 23 26 26
10 4 19 13 19 21 0 20 27 47 34 35 11 -17 42 0 42 22 -1 15 4 21 15 19 9 -1
19 4 23 13 3 8 14 15 25 15 17 0 36 31 32 54 -1 5 5 4 13 -4 14 -10 16 -10 17
6 1 11 1 22 0 26 0 3 7 5 17 3 26 -4 38 7 16 16 -17 7 -17 8 -1 8 9 1 17 9 17
19 0 13 2 14 9 3 7 -11 11 -10 20 6 5 11 8 23 4 26 -3 4 4 5 15 2 23 -4 39 10
23 20 -6 3 -8 12 -5 20 4 8 10 13 14 10 14 -9 38 6 43 26 3 10 13 19 22 19 14
0 15 3 6 14 -9 11 -8 15 5 20 9 3 20 4 25 0 5 -3 9 4 9 15 0 19 14 37 76 101
14 14 21 29 17 33 -4 5 0 5 8 2 11 -4 22 7 39 40 13 25 27 45 32 45 4 0 7 3 7
8 -3 17 2 33 9 29 4 -3 13 1 19 9 7 7 9 15 5 18 -5 3 -8 15 -6 28 1 13 3 28 3
33 1 6 5 3 10 -5 6 -8 8 -17 5 -21 -2 -4 0 -10 6 -14 5 -3 10 1 10 9 0 9 5 16
10 16 6 0 3 11 -5 24 -16 24 -16 25 10 28 34 4 82 83 63 105 -8 10 -7 12 5 8
8 -4 18 -2 22 4 3 6 1 11 -4 11 -6 0 -11 7 -11 15 0 8 5 15 11 15 5 0 7 -4 4
-10 -10 -16 12 -12 29 6 9 8 14 19 11 24 -3 5 1 10 7 13 10 3 10 7 1 18 -8 10
-9 20 -3 29 6 8 10 11 10 5 0 -5 14 14 30 44 16 29 27 58 23 64 -3 5 -2 7 4 4
6 -4 15 5 21 18 7 14 17 25 23 25 6 0 8 7 5 16 -3 9 2 28 13 42 10 15 21 39
25 55 3 15 11 27 16 27 6 0 10 10 10 23 0 35 11 67 21 61 5 -3 9 6 9 19 0 13
3 27 7 31 4 3 8 14 9 23 5 33 48 163 54 163 3 0 7 17 8 37 2 21 8 41 15 45 7
4 8 8 3 8 -6 0 -5 5 1 11 6 6 9 18 6 26 -3 8 0 19 7 23 11 7 11 11 0 25 -10
12 -10 15 -1 13 9 -2 14 12 16 42 1 25 10 63 19 84 9 22 14 46 11 54 -3 8 -2
19 2 25 10 16 17 63 28 187 2 25 6 70 9 100 7 79 12 570 8 950 -2 179 0 548 3
820 3 272 2 809 -2 1193 -4 383 -5 697 -1 697 4 0 7 216 7 480 0 264 -3 480
-7 480 -4 0 -6 18 -4 40 3 30 1 40 -11 40 -8 0 -21 8 -28 18 -13 15 -12 16 4
3 9 -7 17 -10 17 -5 0 11 -20 42 -20 31 0 -4 -13 5 -28 21 -16 16 -36 28 -45
26 -9 -1 -17 2 -17 7 0 5 -3 9 -7 8 -15 -2 -53 13 -53 21 0 10 -60 8 -95 -3z
m-90 -97 c3 -6 -1 -7 -9 -4 -18 7 -21 14 -7 14 6 0 13 -4 16 -10z m-5958 -175
c0 -8 -4 -12 -9 -9 -4 3 -8 9 -8 15 0 5 4 9 8 9 5 0 9 -7 9 -15z m94 -88 c-7
-7 -14 -8 -21 -1 -6 6 -2 10 12 11 16 2 18 -1 9 -10z m279 -151 c0 -9 -7 -12
-21 -9 -16 4 -17 8 -7 14 19 13 28 11 28 -5z m1453 -23 c-13 -2 -35 -2 -50 0
-16 2 -5 4 22 4 28 0 40 -2 28 -4z m3012 -940 c7 -16 16 -21 35 -18 18 2 27
-2 27 -11 0 -8 -7 -14 -14 -14 -8 0 -12 -6 -9 -12 3 -7 9 -21 12 -30 4 -10 11
-18 16 -18 11 0 8 -232 -3 -240 -11 -8 -22 -53 -12 -47 5 4 10 0 10 -8 0 -10
-4 -12 -12 -5 -14 12 -80 -54 -70 -70 4 -6 -547 -10 -1511 -10 -1134 0 -1520
-3 -1525 -12 -4 -6 -2 -19 4 -29 12 -19 -5 -49 -27 -49 -8 0 -11 -172 -10
-645 1 -355 3 -647 5 -648 2 -1 14 -8 26 -14 18 -10 339 -13 1511 -13 l1488 0
57 -51 c31 -28 57 -57 57 -65 0 -9 5 -12 13 -8 9 5 9 4 0 -6 -10 -11 -10 -17
2 -30 13 -14 15 -184 15 -1309 0 -859 -3 -1298 -10 -1306 -5 -6 -7 -15 -3 -19
4 -4 -1 -4 -11 0 -13 5 -17 4 -13 -4 4 -6 -6 -25 -22 -43 -24 -25 -28 -36 -20
-51 6 -12 6 -18 -1 -18 -5 0 -10 7 -10 15 0 19 -11 19 -36 0 -16 -12 -245 -14
-1756 -15 -1217 0 -1738 3 -1738 11 0 5 -4 8 -9 5 -4 -3 -18 6 -31 19 -13 13
-26 23 -29 20 -4 -2 -8 6 -8 18 -1 12 -10 27 -19 34 -39 28 -49 196 -14 238 7
8 10 15 6 15 -3 0 0 15 8 34 11 26 11 37 3 47 -10 11 -9 11 3 1 16 -11 20 -9
87 48 7 5 21 10 32 10 11 0 23 5 26 10 4 7 515 10 1501 10 l1494 0 0 915 0
915 -1489 0 c-1463 0 -1489 0 -1533 20 -25 11 -60 37 -78 57 -36 43 -79 125
-81 157 -1 12 -3 477 -5 1035 -4 894 -3 1019 11 1053 8 21 12 38 9 38 -3 0 1
7 10 15 8 9 13 21 11 28 -6 15 2 27 39 55 l29 22 1776 -2 1776 -3 10 -22z m15
-473 c0 -5 -5 -10 -11 -10 -5 0 -7 5 -4 10 3 6 8 10 11 10 2 0 4 -4 4 -10z
m1420 -3230 c0 -5 -7 -7 -15 -4 -8 4 -15 8 -15 10 0 2 7 4 15 4 8 0 15 -4 15
-10z m-5086 -706 c3 -8 2 -12 -4 -9 -6 3 -10 10 -10 16 0 14 7 11 14 -7z
m4803 -56 c-3 -8 -6 -5 -6 6 -1 11 2 17 5 13 3 -3 4 -12 1 -19z m-6107 -25
c-11 -17 -11 -17 -6 0 3 10 6 24 7 30 0 9 2 9 5 0 3 -7 0 -20 -6 -30z m6118
-7 c-10 -7 -14 -17 -10 -21 4 -5 1 -5 -5 -1 -18 10 -16 24 5 29 27 7 28 7 10
-7z m-328 -560 c0 -3 -4 -8 -10 -11 -5 -3 -10 -1 -10 4 0 6 5 11 10 11 6 0 10
-2 10 -4z m-5230 -246 c0 -5 -4 -10 -10 -10 -5 0 -10 5 -10 10 0 6 5 10 10 10
6 0 10 -4 10 -10z m90 -80 c0 -5 -5 -10 -11 -10 -5 0 -7 5 -4 10 3 6 8 10 11
10 2 0 4 -4 4 -10z m4830 -5 c-7 -9 -15 -13 -19 -10 -3 3 1 10 9 15 21 14 24
12 10 -5z m-4757 -80 c-3 -9 -8 -14 -10 -11 -3 3 -2 9 2 15 9 16 15 13 8 -4z
m4665 -10 c-3 -3 -9 2 -12 12 -6 14 -5 15 5 6 7 -7 10 -15 7 -18z m-468 -399
c0 -2 -7 -7 -16 -10 -8 -3 -12 -2 -9 4 6 10 25 14 25 6z m-220 -155 c0 -14 -2
-14 -10 -1 -8 13 -10 12 -10 -3 0 -21 -24 -18 -28 4 -1 9 7 15 23 15 17 1 25
-3 25 -15z m-393 -157 c-3 -3 -12 -4 -19 -1 -8 3 -5 6 6 6 11 1 17 -2 13 -5z
m-2522 -22 c-3 -3 -11 0 -18 7 -9 10 -8 11 6 5 10 -3 15 -9 12 -12z m1582
-228 c-3 -3 -12 -4 -19 -1 -8 3 -5 6 6 6 11 1 17 -2 13 -5z m-57 -14 c0 -5 -2
-10 -4 -10 -3 0 -8 5 -11 10 -3 6 -1 10 4 10 6 0 11 -4 11 -10z"/>
</g>
</svg>
